<svg xmlns="http://www.w3.org/2000/svg" version="1.1" xmlns:xlink="http://www.w3.org/1999/xlink" xmlns:svgjs="http://svgjs.dev/svgjs" width="2000" height="575" viewBox="0 0 2000 575"><g transform="matrix(1,0,0,1,-1.2121212121213603,-0.4194046973865966)"><svg viewBox="0 0 396 114" data-background-color="#ffffff" preserveAspectRatio="xMidYMid meet" height="575" width="2000" xmlns="http://www.w3.org/2000/svg" xmlns:xlink="http://www.w3.org/1999/xlink"><g id="tight-bounds" transform="matrix(1,0,0,1,0.24000000000003752,0.08315154000359826)"><svg viewBox="0 0 395.5199999999999 113.83369691999282" height="113.83369691999282" width="395.5199999999999"><g><svg viewBox="0 0 691.1148841158224 198.90817722324155" height="113.83369691999282" width="395.5199999999999"><g><rect width="8.205065580287219" height="198.90817722324155" x="265.9105892677676" y="0" fill="#ffffff" opacity="1" stroke-width="0" stroke="transparent" fill-opacity="1" class="rect-r$-0" data-fill-palette-color="primary" rx="1%" id="r$-0" data-palette-color="#ffffff"></rect></g><g transform="matrix(1,0,0,1,295.5948841158224,0.4947964607543156)"><svg viewBox="0 0 395.52 197.91858430173292" height="197.91858430173292" width="395.52"><g id="textblocktransform"><svg viewBox="0 0 395.52 197.91858430173292" height="197.91858430173292" width="395.52" id="textblock"><g><svg viewBox="0 0 395.52 197.91858430173292" height="197.91858430173292" width="395.52"><g transform="matrix(1,0,0,1,0,0)"><svg width="395.52" viewBox="2.149999999999997 -33.75 148.79 71.44" height="197.91858430173292" data-palette-color="#ffffff"><svg></svg><svg></svg><g class="wordmark-text-0" data-fill-palette-color="primary" id="text-0"><path d="M23.81-9.23v0c0 2.987-1.077 5.347-3.23 7.08-2.16 1.74-5.093 2.61-8.8 2.61-3.707 0-6.917-0.667-9.63-2v0-6.55c2.24 0.98 4.137 1.68 5.69 2.1 1.547 0.42 3.037 0.63 4.47 0.63 1.433 0 2.56-0.3 3.38-0.9 0.813-0.593 1.22-1.473 1.22-2.64v0c0-0.673-0.187-1.257-0.56-1.75-0.367-0.5-0.873-0.973-1.52-1.42-0.653-0.447-2.063-1.18-4.23-2.2-2.16-1.02-3.74-1.967-4.74-2.84v0c-2.22-1.92-3.33-4.33-3.33-7.23 0-2.9 0.993-5.193 2.98-6.88 1.987-1.687 4.743-2.53 8.27-2.53v0c2.98 0 6.273 0.783 9.88 2.35v0l-2.27 5.49c-1.773-0.727-3.25-1.233-4.43-1.52-1.18-0.287-2.373-0.43-3.58-0.43-1.2 0-2.16 0.303-2.88 0.91-0.713 0.607-1.07 1.427-1.07 2.46v0c0 1.18 0.597 2.173 1.79 2.98v0c0.593 0.407 2.087 1.173 4.48 2.3v0c3.08 1.48 5.203 2.97 6.37 4.47 1.16 1.5 1.74 3.337 1.74 5.51zM51.69-27.4h-9.02v27.4h-7.05v-27.4h-9.03v-5.87h25.1zM76.85-12.94v-20.33h7.05v21.54c0.033 3.693-1.207 6.66-3.72 8.9-2.507 2.24-5.867 3.337-10.08 3.29v0c-4.3 0-7.627-1.1-9.98-3.3-2.347-2.2-3.52-5.197-3.52-8.99v0-21.44h7.02v20.38c0 2.593 0.52 4.48 1.56 5.66 1.033 1.18 2.72 1.77 5.06 1.77 2.333 0 4.017-0.597 5.05-1.79 1.04-1.2 1.56-3.097 1.56-5.69zM99.09-5.81h3.01c6.793 0 10.19-3.65 10.19-10.95v0c0-7.147-3.153-10.72-9.46-10.72v0h-3.74zM92.04-33.27h10.44c5.407 0 9.613 1.43 12.62 4.29 3.013 2.853 4.52 6.94 4.52 12.26 0 5.313-1.56 9.43-4.68 12.35-3.12 2.913-7.62 4.37-13.5 4.37v0h-9.4zM139.91-12.94v12.94h-7.02v-12.71l-11.02-20.56h7.63l6.9 13.7 6.95-13.7h7.59z" fill="#ffffff" fill-rule="nonzero" stroke="none" stroke-width="1" stroke-linecap="butt" stroke-linejoin="miter" stroke-miterlimit="10" stroke-dasharray="" stroke-dashoffset="0" font-family="none" font-weight="none" font-size="none" text-anchor="none" style="mix-blend-mode: normal" data-fill-palette-color="primary" opacity="1"></path><path transform="translate(0,37.23)" d="M15.6-14.48v0h-4.35v8.67h4.57c1.94 0 3.373-0.373 4.3-1.12 0.927-0.74 1.39-1.877 1.39-3.41v0c0-2.76-1.97-4.14-5.91-4.14zM14.94-27.48h-3.69v7.38h4.09c1.927 0 3.313-0.293 4.16-0.88 0.853-0.593 1.28-1.547 1.28-2.86 0-1.313-0.463-2.247-1.39-2.8-0.927-0.56-2.41-0.84-4.45-0.84zM16.63 0h-12.43v-33.27h10.33c4.707 0 8.13 0.67 10.27 2.01 2.14 1.34 3.21 3.477 3.21 6.41v0c0 1.973-0.463 3.6-1.39 4.88-0.927 1.28-2.173 2.057-3.74 2.33v0 0.22c2.073 0.46 3.583 1.33 4.53 2.61 0.953 1.28 1.43 2.997 1.43 5.15v0c0 3.053-1.1 5.427-3.3 7.12-2.2 1.693-5.17 2.54-8.91 2.54zM46.28-12.77h-3.74v12.77h-7.05v-33.27h9.68c4.5 0 7.84 0.823 10.02 2.47 2.187 1.64 3.28 4.137 3.28 7.49v0c0 1.96-0.537 3.7-1.61 5.22-1.067 1.527-2.593 2.73-4.58 3.61v0c5 7.46 8.26 12.287 9.78 14.48v0h-7.84zM44.67-27.48h-2.13v8.98h2.28c2.22 0 3.863-0.373 4.93-1.12 1.06-0.74 1.59-1.893 1.59-3.46 0-1.567-0.537-2.69-1.61-3.37-1.067-0.687-2.753-1.03-5.06-1.03zM80.64-27.91v0c-2.8 0-4.913 0.943-6.34 2.83-1.42 1.893-2.13 4.693-2.13 8.4v0c0 7.48 2.81 11.22 8.43 11.22 5.62 0 8.43-3.74 8.43-11.22 0-7.487-2.797-11.23-8.39-11.23zM68.86-29.4v0c2.76-2.913 6.693-4.37 11.8-4.37 5.107 0 9.013 1.473 11.72 4.42 2.707 2.953 4.06 7.183 4.06 12.69 0 5.513-1.367 9.743-4.1 12.69-2.727 2.953-6.64 4.43-11.74 4.43-5.1 0-9.013-1.477-11.74-4.43-2.733-2.947-4.1-7.193-4.1-12.74 0-5.547 1.367-9.777 4.1-12.69z" fill="#ffffff" fill-rule="nonzero" stroke="none" stroke-width="1" stroke-linecap="butt" stroke-linejoin="miter" stroke-miterlimit="10" stroke-dasharray="" stroke-dashoffset="0" font-family="none" font-weight="none" font-size="none" text-anchor="none" style="mix-blend-mode: normal" data-fill-palette-color="primary" opacity="1"></path></g></svg></g></svg></g></svg></g></svg></g><g transform="matrix(1,0,0,1,0,8.008091869693857)"><svg viewBox="0 0 244.43135999999998 182.89199348385384" height="182.89199348385384" width="244.43135999999998"><g><svg xmlns="http://www.w3.org/2000/svg" xmlns:xlink="http://www.w3.org/1999/xlink" version="1.1" x="0" y="0" viewBox="5.533376981351333 16.725421860621985 88.93220332958572 66.54214889554007" enable-background="new 0 0 100 100" xml:space="preserve" height="182.89199348385384" width="244.43135999999998" class="icon-icon-0" data-fill-palette-color="accent" id="icon-0"><g fill="#62e971" data-fill-palette-color="accent"><g fill="#62e971" data-fill-palette-color="accent"><path fill="#62e971" d="M11.854 38.584c0.27-0.395 0.807-0.495 1.201-0.226 0.394 0.27 0.494 0.808 0.225 1.201-2.194 3.207-2.87 5.754-2.01 7.567 1.062 2.239 4.252 2.882 5.291 3.034-0.802-3.011-0.949-5.875 0.444-7.645 1.055-1.34 2.818-1.867 5.251-1.573-0.081-2.946 0.335-6.838 2.517-9.84-1.659-0.272-2.773-1.305-2.839-1.367-0.347-0.329-0.361-0.876-0.033-1.222 0.327-0.346 0.872-0.36 1.219-0.036 0.067 0.063 1.582 1.431 3.486 0.781 0.891-0.609 1.893-0.949 2.995-1.006 1.297-0.067 2.582 0.267 3.737 0.758 0.19-0.236 0.354-0.527 0.295-0.755-0.044-0.174-0.453-1.073-4.091-1.679-0.471-0.078-0.788-0.523-0.71-0.994s0.525-0.79 0.994-0.71c3.326 0.554 5.12 1.522 5.483 2.963 0.194 0.772-0.07 1.456-0.408 1.966 0.588 0.345 1.112 0.703 1.549 1.027 0.277-3.141 1.109-5.996 3.449-7.309 2.926-1.642 9.56-2.435 13.718-0.001 1.678 0.983 2.793 2.403 3.303 4.171 1.562-1.909 3.609-3.281 6.477-3.411 3.878-0.175 7.521 1.428 9.51 4.19 1.271 1.766 1.709 3.799 1.287 5.844 1.749-0.056 4.823 0.22 6.909 2.567 1.101 1.239 2.373 2.863 3.379 5.071 0.536-0.579 1.302-1.17 2.336-1.17h0.022c0.467 0 0.852 0.415 0.863 0.885 0.012 0.477-0.365 0.915-0.843 0.927-0.844 0.021-1.399 0.884-1.629 1.321 0.356 1.086 0.642 2.297 0.819 3.622 0.689-1.048 1.612-1.917 2.762-1.917h0.021c1.723 0 3.175 1.836 4.541 5.796 1.006-2.291 2.647-7.547-2.279-9.637 0 0 3.288-6.19-5.803-5.997 0 0 0.491-3.126-2.471-4.218-0.008 0.022-0.011 0.045-0.021 0.067-0.185 0.439-0.69 0.611-1.131 0.427-1.224-0.512-2.611-0.953-3.235-0.953h-0.007c0.034 0.346 0.087 0.265 0.166 0.402 0.238 0.413 0.096 1.014-0.317 1.252-0.136 0.078-0.284 0.115-0.431 0.115-0.299 0-0.59-0.16-0.75-0.438-0.579-1.006-0.619-1.808-0.119-2.375 0.94-1.067 3.398-0.36 5.313 0.438 0.225-1.366-0.383-4.109-7.83-5.936 0 0-0.717-6.046-9.139-5.174 0.567 0.678 0.672 1.45 0.58 2.11 0.715 0.122 1.48 0.288 2.304 0.51 0.461 0.124 0.734 0.599 0.609 1.059-0.124 0.461-0.6 0.732-1.059 0.61-7.632-2.057-9.441 0.972-9.459 1.003-0.151 0.297-0.449 0.465-0.76 0.465-0.134 0-0.271-0.031-0.398-0.096-0.425-0.217-0.589-0.745-0.372-1.17 0.075-0.148 1.642-3.046 7.424-2.595 0.048-0.319-0.018-0.72-0.479-1.046-0.39-0.274-0.482-0.813-0.207-1.204 0.007-0.011 0.018-0.019 0.025-0.029-1.807-1.277-7.024-4.172-13.246-0.439 0 0-4.255-2.321-8.317 0 0 0-3.838-0.832-5.934 2.151 1 0.426 2.533 1.665 2.035 3.755-0.095 0.396-0.448 0.664-0.84 0.664-0.065 0-0.133-0.008-0.2-0.023-0.464-0.111-0.751-0.577-0.641-1.041 0.302-1.268-1.041-1.771-1.099-1.792-0.409-0.149-0.634-0.575-0.547-0.99-2.206-0.403-7.883-1.008-6.314 3.853 0 0-9.284-5.416-12.572 7.93 0 0-8.447 1.24-6.361 10.263C9.894 41.891 10.678 40.304 11.854 38.584zM15.715 35.641c0.043 0.001 0.531 0.01 0.922-0.353 0.359-0.335 0.555-0.905 0.58-1.697 0.015-0.477 0.416-0.859 0.891-0.836 0.477 0.015 0.852 0.414 0.836 0.891-0.041 1.292-0.434 2.281-1.167 2.94-0.787 0.708-1.699 0.782-2.046 0.782-0.066 0-0.112-0.003-0.133-0.004-0.476-0.036-0.832-0.45-0.797-0.926C14.836 35.966 15.25 35.609 15.715 35.641zM92.836 53.391c-0.366 0-0.706-0.224-0.823-0.591-1.654-5.201-2.934-5.451-3.182-5.451h-0.002c-0.924 0-2.11 2.311-2.611 3.986-0.123 0.413-0.528 0.648-0.959 0.583-0.427-0.065-0.739-0.436-0.732-0.867 0.1-6.708-2.468-10.472-4.715-13-1.888-2.126-4.985-2.069-6.166-1.96-1.298 3.726-0.501 6.14-0.014 7.604 0.172 0.516 0.308 0.924 0.337 1.308l0.027 0.327c0.096 1.116 0.214 2.505-1.248 3.303-0.132 0.072-0.273 0.105-0.413 0.105-0.307 0.001-0.603-0.162-0.76-0.45-0.229-0.419-0.074-0.943 0.345-1.172 0.411-0.225 0.457-0.438 0.354-1.64l-0.028-0.341c-0.013-0.173-0.13-0.523-0.254-0.895-0.543-1.632-1.555-4.671 0.212-9.25 0.734-1.902 0.486-3.856-0.7-5.504-1.626-2.26-4.776-3.627-8.028-3.477-2.907 0.132-4.821 1.917-6.271 4.274-0.043 0.149-0.122 0.283-0.232 0.388-0.934 1.608-1.675 3.443-2.379 5.189-0.278 0.689-0.54 1.34-0.809 1.959-1.913 4.418-1.297 9.311-1.29 9.359 0.062 0.474-0.271 0.907-0.743 0.97-0.477 0.063-0.907-0.271-0.97-0.743-0.029-0.219-0.684-5.421 1.418-10.273 0.259-0.598 0.518-1.239 0.791-1.918 0.716-1.774 1.497-3.712 2.515-5.456-0.077-2.119-1.003-3.716-2.761-4.745-3.521-2.062-9.553-1.355-11.999 0.016-1.997 1.121-2.538 4.278-2.659 7.497 0.006 0.073 0.005 0.146-0.008 0.219-0.04 1.271-0.02 2.546 0 3.702 0.016 0.948 0.031 1.845 0.014 2.644-0.104 4.951-2.12 5.988-2.35 6.09l-0.702-1.578c0 0-0.014 0.004-0.038 0.019 0.013-0.008 1.282-0.781 1.362-4.567 0.017-0.767 0.002-1.646-0.014-2.578-0.02-1.13-0.038-2.324-0.011-3.519-0.525-0.454-1.716-1.41-3.162-2.119-0.021-0.01-0.042-0.02-0.062-0.031-1.063-0.514-2.26-0.888-3.429-0.826-1.222 0.063-2.24 0.595-3.114 1.625-2.471 2.909-2.717 7.228-2.537 10.142 0.029 0.107 0.038 0.22 0.023 0.335 0.124 1.642 0.369 2.765 0.376 2.795 0.072 0.32-0.042 0.654-0.297 0.861-0.254 0.207-0.604 0.253-0.903 0.116-1.604-0.728-3.443 0.654-3.461 0.668-0.158 0.124-0.346 0.184-0.532 0.184-0.257 0-0.511-0.113-0.681-0.331-0.294-0.376-0.229-0.919 0.147-1.213 0.088-0.068 1.788-1.379 3.804-1.241-0.051-0.351-0.102-0.76-0.146-1.215-1.957-0.296-3.307-0.005-4.003 0.881-1.393 1.769-0.591 6.307 2.143 12.139 1.159 2.472 1.348 4.522 0.562 6.095-0.92 1.842-2.827 2.258-2.908 2.274-0.06 0.013-0.118 0.019-0.177 0.019-0.4 0-0.761-0.28-0.845-0.688-0.097-0.465 0.199-0.921 0.664-1.021 0.062-0.014 1.197-0.287 1.729-1.375 0.519-1.06 0.314-2.641-0.59-4.57-0.669-1.428-1.329-2.997-1.859-4.575-0.083 0.026-0.169 0.044-0.26 0.044-0.023 0-0.047-0.001-0.071-0.003-0.217-0.018-5.336-0.477-7.038-4.049-0.335-0.703-0.506-1.468-0.523-2.29C7.217 48.396 2.01 57.038 9.274 61.11c0.233-0.668 1.284-3.157 4.097-3.365 0.476-0.035 0.89 0.322 0.925 0.798 0.035 0.477-0.321 0.891-0.798 0.926-1.988 0.146-2.607 2.254-2.613 2.275-0.108 0.38-0.454 0.628-0.831 0.628-0.023 0-0.047-0.008-0.069-0.01-0.11 2.667 0.434 10.468 11.094 7.076 0 0 0.562 8.503 13.432 6.526-0.283-0.713-0.881-2.798 0.048-6.176 0.127-0.459 0.603-0.731 1.062-0.604 0.46 0.127 0.73 0.603 0.604 1.062-0.944 3.434-0.085 5.141-0.076 5.157 0.23 0.418 0.078 0.943-0.341 1.173-0.003 0.002-0.007 0.003-0.01 0.004 1.025 1.672 4.129 5.4 10.812 3.881 0 0 13.945 7.889 18.602-2.786-0.302-0.15-0.512-0.485-0.511-0.837-0.001-0.055-0.067-3.401-3.694-8.548-0.274-0.39-0.181-0.929 0.209-1.204 0.391-0.273 0.929-0.154 1.204 0.236 3.999 5.674 4.011 9.373 4.009 9.526-0.001 0.117-0.025 0.232-0.068 0.338 1.851 0.841 6.643 2.484 11.196-0.4 5.803-3.675 3.869-7.35 11.219-10.444 6.097-2.567 4.874-10.387 4.28-12.979C92.981 53.383 92.908 53.391 92.836 53.391zM28.139 39.363c0.427-0.854 0.185-1.254 0.182-1.257-0.348-0.326-0.365-0.873-0.039-1.221s0.872-0.366 1.221-0.039c0.463 0.433 1.021 1.613 0.183 3.289-1.916 3.83-1.618 6.709-1.03 8.449 0.855 2.536 2.954 4.638 6.237 6.25 0.428 0.21 0.604 0.728 0.395 1.156-0.149 0.306-0.457 0.483-0.776 0.483-0.127 0-0.257-0.029-0.38-0.089-3.711-1.821-6.104-4.26-7.113-7.248C26.324 47.085 25.957 43.724 28.139 39.363zM71.536 65.218c0.193 2.317 0.393 4.712 1.12 5.758 0.272 0.392 0.176 0.931-0.216 1.203-0.393 0.271-0.931 0.176-1.203-0.216-0.992-1.427-1.201-3.94-1.424-6.602-0.162-1.951-0.331-3.969-0.814-5.417-0.396-1.192-1.529-2.224-3.107-2.829-3.034-1.163-7.016-0.557-10.926 1.663-1.509 0.857-2.349 1.97-2.567 3.401-0.664 4.353 4.557 9.997 4.609 10.054 0.326 0.349 0.308 0.896-0.041 1.221-0.167 0.156-0.379 0.233-0.59 0.233-0.231 0-0.461-0.093-0.632-0.274-0.238-0.256-5.844-6.322-5.055-11.494 0.053-0.348 0.134-0.683 0.24-1.005-0.625 0.099-1.374 0.175-2.19 0.175-1.072 0-2.261-0.134-3.442-0.519-1.843 0.399-3.135 1.273-3.933 2.677-2.123 3.736 0.038 9.801 0.06 9.861 0.163 0.449-0.068 0.944-0.517 1.106-0.098 0.036-0.197 0.053-0.295 0.053-0.354 0-0.685-0.219-0.812-0.569-0.083-0.229-1.673-4.702-0.863-8.743-3.012-0.693-5.456-0.532-7.103 0.481-1.625 1-1.978 2.518-1.98 2.532-0.085 0.408-0.444 0.689-0.845 0.689-0.059 0-0.117-0.006-0.176-0.018-0.468-0.097-0.769-0.554-0.672-1.021 0.019-0.092 0.487-2.252 2.768-3.655 0.159-0.098 0.323-0.188 0.491-0.273 0.424-1.046 0.466-2.008 0.113-2.862-0.457-1.111-1.623-2.109-3.119-2.671-0.621-0.232-1.288-0.176-1.901-0.004-0.052 0.021-0.106 0.037-0.162 0.047-1.114 0.354-2.007 1.065-2.021 1.077-0.37 0.299-0.914 0.242-1.215-0.128-0.3-0.369-0.244-0.912 0.125-1.213 0.066-0.054 0.95-0.763 2.185-1.237 0.305-3.124-2.747-4.027-3.113-4.123-0.46-0.121-0.737-0.593-0.617-1.054 0.119-0.46 0.585-0.739 1.048-0.62 1.654 0.422 4.454 2.064 4.435 5.387 0.6-0.044 1.226 0.018 1.845 0.25 0.931 0.349 3.193 1.4 4.111 3.63 0.368 0.896 0.46 1.844 0.284 2.834 1.699-0.351 3.709-0.257 6.013 0.288 0.125-0.307 0.268-0.608 0.434-0.899 0.739-1.3 1.819-2.265 3.21-2.9-0.621-0.42-1.217-0.94-1.764-1.584-4.033-4.737-0.146-22.475 0.31-24.482 0.106-0.465 0.566-0.757 1.034-0.65 0.466 0.105 0.757 0.568 0.651 1.033-1.187 5.22-3.621 19.523-0.68 22.98 3.152 3.703 8.512 2.378 9.462 2.105 0.533-0.613 1.208-1.155 2.025-1.62 2.395-1.359 4.836-2.164 7.134-2.394 0.001 0 0.002-0.002 0.004-0.002 0.152-0.099 3.563-2.336 2.424-6.079-1.578-5.186-1.725-8.436-0.459-10.228 0.274-0.39 0.814-0.483 1.203-0.208 0.391 0.275 0.483 0.813 0.208 1.204-0.623 0.883-1.008 3.113 0.701 8.727 0.85 2.792-0.22 5.089-1.497 6.577 0.939 0.098 1.839 0.3 2.68 0.622 1.794 0.688 3.165 1.845 3.861 3.244 1.843-0.269 7.543-1.947 7.772-12.245 0.011-0.47 0.396-0.873 0.863-0.873h0.02c0.477 0 0.855 0.435 0.845 0.911-0.244 10.958-6.409 13.338-8.959 13.848C71.252 61.843 71.397 63.558 71.536 65.218zM89.564 58.958c-2.221 4.995-5.969 6.029-8.69 6.029-1.897 0-3.296-0.503-3.33-0.516-0.447-0.167-0.674-0.664-0.508-1.111 0.167-0.446 0.664-0.674 1.109-0.509 0.274 0.101 6.739 2.379 9.84-4.596 0.193-0.437 0.705-0.633 1.141-0.438S89.758 58.522 89.564 58.958z" data-fill-palette-color="accent"></path></g></g></svg></g></svg></g></svg></g><defs></defs></svg><rect width="395.5199999999999" height="113.83369691999282" fill="none" stroke="none" visibility="hidden"></rect></g></svg></g></svg>